OpenSim_Sub04_CSStiffKnee_GRF.mot
version=1
nRows=23
nColumns=19
inDegrees=no
endheader
time	lFx	lFy	lFz	lCOPx	lCOPy	lCOPz	rFx	rFy	rFz	rCOPx	rCOPy	rCOPz	lMx	lMy	lMz	rMx	rMy	rMz
0	-2.40999161	344.09371466	21.92267528	0.74897379	0	-0.66674541	3.98383847	352.00624039	-26.78988697	0.74477874	0	-0.38789708	0	-2.04092688	0	0	0.27347372	-0.00000000
0.01000000	-1.79684279	344.37474332	22.17788430	0.74856351	0	-0.66640058	4.25181574	351.78178437	-26.43974999	0.74456890	0	-0.38801692	0	-2.12690468	0	0	0.32151902	0
0.02000000	-1.60454887	344.70072410	22.29916215	0.74813142	0	-0.66619025	4.26435926	351.27897864	-26.09315404	0.74415266	0	-0.38814717	0	-2.16587421	0	0	0.30748766	0
0.03000000	-1.70943484	344.78908208	22.34396224	0.74784814	0	-0.66611985	4.09761972	350.52106892	-25.76914846	0.74356416	0	-0.38828157	0	-2.18649349	0	0	0.25981599	-0.00000000
0.04000000	-1.92676891	344.51153793	22.33421943	0.74774974	0	-0.66616466	3.86288763	349.53937571	-25.44661839	0.74293480	0	-0.38841175	0	-2.19762962	0	0	0.21418263	-0.00000000
0.05000000	-2.11175909	343.85700340	22.27310204	0.74776496	0	-0.66626336	3.65584753	348.34564733	-25.12792901	0.74238624	0	-0.38854023	0	-2.21672470	0	0	0.19493268	0
0.06000000	-2.18850252	342.97777954	22.19402115	0.74778388	0	-0.66633715	3.52492288	347.01251629	-24.85174986	0.74199126	0	-0.38864060	0	-2.23814576	0	0	0.17905143	-0.00000000
0.07000000	-2.16631035	342.08998104	22.14065869	0.74769667	0	-0.66632975	3.47402719	345.71949381	-24.65380119	0.74172466	0	-0.38868846	0	-2.24663966	0	0	0.15651389	0.00000000
0.08000000	-2.08926668	341.27062627	22.09681280	0.74744693	0	-0.66619150	3.49837406	344.66958877	-24.52330775	0.74155071	0	-0.38865732	0	-2.23007840	0	0	0.14127382	-0.00000000
0.09000000	-1.99074652	340.51098328	22.05419915	0.74696374	0	-0.66587079	3.58818360	343.98726020	-24.47044944	0.74145489	0	-0.38854915	0	-2.20581991	0	0	0.12487571	-0.00000000
0.10000000	-1.86603443	339.85107161	22.00281881	0.74644225	0	-0.66549321	3.72420317	343.65476371	-24.51150067	0.74152128	0	-0.38840876	0	-2.19231431	0	0	0.08614294	-0.00000000
0.11000000	-1.72398321	339.54342115	21.95349883	0.74640982	0	-0.66554277	3.88311789	343.71789242	-24.64176574	0.74216789	0	-0.38847475	0	-2.19292877	0	0	0.02449664	0.00000000
0.12000000	-1.59239403	340.12067269	21.92212832	0.74789609	0	-0.66703964	4.05271556	344.58738754	-24.86921286	0.74432369	0	-0.38929939	0	-2.19945606	0	0	-0.03320232	-0.00000000
0.13000000	-1.46570043	342.25333659	21.95882645	0.75224503	0	-0.67116704	4.22339086	346.86268055	-25.19483608	0.74925524	0	-0.39158086	0	-2.20407156	0	0	-0.07210908	0
0.14000000	-1.34322697	345.97396633	22.09480524	0.75950360	0	-0.67787684	4.39406813	350.51639721	-25.60186394	0.75693683	0	-0.39537904	0	-2.21665153	0	0	-0.10514011	0
0.15000000	-1.25433680	348.92522328	22.18295789	0.76479822	0	-0.68268581	4.54189756	353.22803245	-25.92222846	0.76234546	0	-0.39814827	0	-2.22418177	0	0	-0.12011289	0
0.16000000	-1.19675093	343.99416049	21.78968532	0.75283469	0	-0.67196781	4.55166504	347.88346896	-25.61135276	0.75018788	0	-0.39191653	0	-2.18084334	0	0	-0.10845732	0
0.17000000	-1.10866169	318.34682087	20.12608332	0.69573972	0	-0.62093557	4.22699308	321.62247853	-23.71764515	0.69281565	0	-0.36219360	0	-2.00747708	0	0	-0.07587715	0
0.18000000	-0.93461754	259.48097275	16.40809840	0.56645036	0	-0.50553833	3.40612093	262.06105226	-19.34358362	0.56363893	0	-0.29490323	0	-1.62697862	0	0	-0.03677502	-0.00000000
0.19000000	-0.67243278	177.81739205	11.26969821	0.38793635	0	-0.34622602	2.27684010	179.94961389	-13.28808545	0.38576334	0	-0.20197470	0	-1.10478786	0	0	-0.00856257	-0.00000000
0.20000000	-0.54153727	138.01981430	8.74564475	0.30144842	0	-0.26909129	1.79133873	141.11841823	-10.40237368	0.29966958	0	-0.15697987	0	-0.84289593	0	0	0.01863439	-0.00000000
0.21000000	-0.72257865	184.71835359	11.64557699	0.40463900	0	-0.36121899	2.53707639	191.17812985	-14.05292725	0.40222764	0	-0.21071807	0	-1.10993479	0	0	0.05703483	0
0.22000000	-1.02137911	265.19315140	16.62025103	0.58247225	0	-0.51986239	3.80160808	276.21908180	-20.27045593	0.57892256	0	-0.30325030	0	-1.57763407	0	0	0.10364731	0.00000000
